<?xml version="1.0" ?><!DOCTYPE svg  PUBLIC '-//W3C//DTD SVG 1.1//EN'  'http://www.w3.org/Graphics/SVG/1.1/DTD/svg11.dtd'><!-- Uploaded to: SVG Repo, www.svgrepo.com, Generator: SVG Repo Mixer Tools -->
<svg fill="#ff0000" width="30px" height="30px" viewBox="0 0 512 512" enable-background="new 0 0 512 512" id="no_x5F_smoking" version="1.1" xml:space="preserve" xmlns="http://www.w3.org/2000/svg" xmlns:xlink="http://www.w3.org/1999/xlink"><path d="M385.409,291.581h-0.017c-0.099,0.351-0.208,0.696-0.309,1.046c-0.561,1.943-1.154,3.871-1.799,5.778  c-0.134,0.396-0.268,0.793-0.404,1.188c-0.799,2.291-1.645,4.561-2.568,6.791c-19.853,47.975-67.142,81.823-122.206,81.823  c-29.511,0-56.79-9.725-78.814-26.13l184.892-184.89c9.551,12.823,16.805,27.439,21.225,43.23h39.722  C408.716,143.28,340.067,85.234,258.106,85.234S107.495,143.28,91.08,220.418h39.722c15.581-55.666,66.732-96.626,127.305-96.626  c29.511,0,56.79,9.725,78.813,26.13L152.027,334.813c-6.495-8.719-11.927-18.269-16.138-28.449  c-0.921-2.227-1.766-4.492-2.563-6.779c-0.137-0.396-0.271-0.793-0.405-1.19c-0.643-1.902-1.235-3.827-1.794-5.767  c-0.101-0.35-0.21-0.695-0.309-1.046h-0.017H91.101H91.08c0.098,0.458,0.225,0.903,0.326,1.36c0.515,2.35,1.06,4.688,1.676,6.998  c0.083,0.313,0.169,0.626,0.254,0.939c0.504,1.846,1.029,3.684,1.593,5.506h0.032c21.552,69.639,86.52,120.381,163.145,120.381  c76.629,0,141.627-50.737,163.175-120.381c0.002-0.006,0.004-0.013,0.006-0.02c0.561-1.813,1.084-3.641,1.585-5.477  c0.087-0.32,0.175-0.639,0.26-0.958c0.615-2.311,1.16-4.649,1.676-6.998c0.101-0.454,0.227-0.897,0.323-1.352h-0.021H385.409z"/><polygon points="159.064,231.985 159.064,280.014 190.588,280.014 238.616,231.985 "/><polygon points="277.817,280.014 428.871,280.014 428.871,231.985 325.845,231.985 "/><path d="M456.193,231.985h-9.15h-6.604v48.028h6.604h1.202h7.948c5.758,0,10.427-4.668,10.427-10.428v-27.173  C466.62,236.654,461.951,231.985,456.193,231.985z"/><path d="M147.497,231.985H59.225c-7.646,0-13.845,6.199-13.845,13.845v20.337c0,7.647,6.199,13.846,13.845,13.846h88.271V231.985z"/></svg>